<?xml version="1.0" standalone="no"?>
<!DOCTYPE svg PUBLIC "-//W3C//DTD SVG 20010904//EN"
 "http://www.w3.org/TR/2001/REC-SVG-20010904/DTD/svg10.dtd">
<svg version="1.0" xmlns="http://www.w3.org/2000/svg"
 width="600.000000pt" height="600.000000pt" viewBox="0 0 600.000000 600.000000"
 preserveAspectRatio="xMidYMid meet">
<metadata>
Created by potrace 1.14, written by Peter Selinger 2001-2017
</metadata>
<g transform="translate(0.000000,600.000000) scale(0.100000,-0.100000)"
fill="#000000" stroke="none">
<path d="M1195 5134 c-5 -1 -44 -5 -85 -8 -146 -9 -192 -21 -340 -88 -142 -63
-310 -211 -409 -358 -204 -305 -222 -667 -53 -1090 66 -166 165 -325 295 -472
263 -299 457 -419 581 -358 53 25 66 52 66 135 0 94 -48 232 -146 420 -126
242 -173 378 -178 514 -3 60 18 170 35 186 14 13 152 -132 232 -243 73 -101
140 -235 166 -332 48 -175 56 -311 36 -600 -12 -168 17 -259 109 -350 54 -53
160 -122 253 -166 110 -51 156 -124 241 -380 28 -83 74 -195 102 -250 29 -54
62 -117 73 -138 11 -22 22 -62 24 -90 8 -97 -47 -143 -181 -153 -39 -2 -77 -6
-84 -9 -40 -12 109 -162 192 -193 61 -23 154 -22 206 4 97 46 111 176 35 328
-27 52 -41 70 -139 180 -104 117 -112 133 -201 387 -49 138 -100 242 -146 293
-21 25 -71 60 -120 87 -103 54 -171 120 -209 203 -53 113 -60 166 -57 447 2
251 -5 353 -25 378 -6 6 -8 12 -5 12 12 0 -54 144 -99 218 -26 43 -76 115
-112 162 -84 108 -296 325 -310 316 -18 -11 -79 -169 -101 -263 -27 -115 -32
-224 -16 -311 27 -141 122 -311 248 -446 49 -53 104 -130 114 -161 13 -38 6
-85 -14 -107 -22 -25 -77 -33 -116 -18 -103 41 -285 195 -396 336 -49 62 -130
201 -183 314 -155 329 -181 658 -72 898 13 29 24 56 24 60 0 16 120 190 165
240 97 106 256 209 395 256 147 49 197 57 380 61 289 6 501 -64 847 -278 342
-212 484 -265 703 -265 205 0 410 61 715 214 214 108 274 131 441 169 100 23
154 28 264 27 142 -1 245 -24 359 -78 77 -38 108 -60 176 -127 117 -116 182
-230 215 -372 19 -80 15 -219 -9 -309 -53 -202 -162 -352 -407 -561 -238 -204
-407 -391 -461 -512 -32 -74 -34 -151 -4 -214 19 -40 95 -140 159 -209 40 -43
74 -109 74 -144 0 -46 -18 -78 -152 -266 -328 -458 -455 -734 -505 -1090 -3
-25 -8 -52 -10 -60 -2 -8 -7 -46 -11 -85 -3 -38 -8 -79 -10 -90 -3 -11 -6
-105 -9 -210 l-4 -190 19 75 c18 72 23 103 35 235 3 33 8 71 10 85 3 14 7 43
11 65 3 22 9 56 14 75 5 19 12 53 16 75 11 69 74 266 117 365 91 209 220 402
413 616 104 116 103 114 161 186 70 86 133 207 133 255 0 32 -8 44 -62 92
-199 178 -255 258 -246 349 3 26 12 63 22 83 24 51 152 179 416 415 170 152
255 242 321 340 225 334 232 725 19 1039 -68 99 -177 193 -290 250 -122 61
-237 86 -400 86 -126 0 -224 -16 -365 -60 -107 -34 -221 -81 -470 -196 -126
-58 -314 -125 -418 -150 -81 -19 -129 -24 -237 -24 -258 0 -406 47 -893 283
-369 178 -546 237 -762 252 -44 3 -84 7 -90 8 -5 2 -14 2 -20 0z"/>
<path d="M5090 5087 c-55 -15 -112 -57 -140 -102 -11 -18 -20 -34 -20 -36 0
-2 24 -5 54 -5 102 -3 148 -45 229 -212 114 -235 272 -305 489 -218 57 23 170
87 165 93 -2 1 -25 5 -53 8 -75 9 -115 22 -164 53 -44 28 -64 54 -170 222
-101 160 -251 236 -390 197z"/>
<path d="M4301 4477 c-6 -107 -58 -180 -176 -246 -179 -100 -251 -238 -195
-369 20 -45 73 -102 97 -102 4 0 9 20 10 45 3 75 30 106 146 166 116 61 177
112 207 173 39 82 31 168 -26 283 -47 95 -59 105 -63 50z"/>
<path d="M1615 3918 c0 -40 -3 -91 -7 -113 -4 -22 -10 -58 -13 -80 -4 -22 -8
-51 -11 -65 -3 -14 -7 -70 -9 -125 -5 -111 7 -167 52 -244 26 -45 133 -165
140 -158 2 2 -10 33 -27 69 -64 136 -70 251 -25 427 20 74 26 119 23 161 -4
54 -3 58 14 49 26 -14 65 -75 91 -145 21 -55 22 -75 23 -309 1 -343 7 -363
154 -462 161 -108 238 -215 255 -353 9 -81 41 -171 106 -304 33 -66 59 -130
59 -143 0 -13 -11 -35 -26 -49 -22 -23 -30 -25 -76 -20 -27 4 -59 11 -69 17
-22 12 -25 -1 -7 -34 34 -65 178 -97 229 -51 67 60 59 121 -31 254 -92 137
-125 224 -129 349 -4 120 -8 139 -36 197 -35 71 -84 116 -174 159 -91 44 -128
77 -141 126 -9 34 -7 119 6 189 2 14 5 86 5 160 1 203 -34 286 -176 426 -53
52 -175 144 -191 144 -5 0 -9 -33 -9 -72z"/>
<path d="M3498 3854 c-2 -2 -17 -5 -33 -8 -51 -9 -134 -43 -184 -76 -43 -27
-106 -89 -352 -346 -115 -121 -184 -180 -253 -219 -199 -111 -351 -86 -514 85
-50 52 -53 53 -46 25 35 -154 151 -250 314 -260 190 -12 377 93 575 321 135
155 254 252 371 302 293 123 624 -92 601 -392 -11 -141 -37 -217 -144 -426
-106 -207 -111 -269 -32 -365 21 -26 40 -50 40 -54 7 -33 3 -86 -11 -136 -18
-63 -29 -91 -132 -330 -177 -411 -240 -682 -218 -940 l2 -30 9 35 c13 49 26
117 34 169 4 25 20 95 36 156 81 312 215 593 414 865 127 174 133 205 53 257
-140 91 -140 199 -3 523 89 209 106 305 79 440 -51 248 -238 399 -501 405 -56
1 -104 1 -105 -1z"/>
<path d="M1849 2706 c6 -15 5 -31 -3 -47 -29 -57 -36 -92 -26 -125 16 -46 66
-75 143 -81 l62 -5 -32 23 c-46 34 -55 55 -63 138 -7 64 -12 78 -34 98 -37 31
-58 31 -47 -1z"/>
<path d="M1247 1878 c2 -120 8 -150 36 -176 35 -33 76 -44 168 -47 48 -1 92
-5 98 -9 38 -24 -25 109 -71 150 -20 18 -58 37 -87 45 -57 14 -66 22 -97 83
-36 72 -49 59 -47 -46z"/>
</g>
</svg>
